/* XPM */
static char *atgng_upm8w[] = {
/* columns rows colors chars-per-pixel */
"50 50 168 2 ",
"   c #514047",
".  c #44231F",
"X  c #472521",
"o  c #4B2722",
"O  c #4E2A26",
"+  c #4A2B29",
"@  c #552C27",
"#  c #532D29",
"$  c #582E29",
"%  c #5E332E",
"&  c #593534",
"*  c #60342F",
"=  c #623530",
"-  c #6A3731",
";  c #633A35",
":  c #6C3B35",
">  c #6F3E39",
",  c #713F39",
"<  c #6E413C",
"1  c #71423E",
"2  c #7E423C",
"3  c #543E44",
"4  c #5E454B",
"5  c #4E4A59",
"6  c #554751",
"7  c #574852",
"8  c #5E4B54",
"9  c #6C4945",
"0  c #60484F",
"q  c #6E4E4A",
"w  c #694642",
"e  c #734541",
"r  c #754945",
"t  c #774D49",
"y  c #794F4B",
"u  c #77504C",
"i  c #7A524E",
"p  c #624C55",
"a  c #624E58",
"s  c #695056",
"d  c #63515B",
"f  c #6B545E",
"g  c #775551",
"h  c #7C5551",
"j  c #7E5A56",
"k  c #7B5D59",
"l  c #72575C",
"z  c #424E64",
"x  c #47546B",
"c  c #4A566D",
"v  c #4C586F",
"b  c #575566",
"n  c #5C5667",
"m  c #4A5770",
"M  c #4C5A72",
"N  c #525E74",
"B  c #6E5761",
"V  c #6E5862",
"C  c #725B64",
"Z  c #7C5E67",
"A  c #7D5F69",
"S  c #556076",
"D  c #55637E",
"F  c #5A667E",
"G  c #5D687D",
"H  c #6F6067",
"J  c #75616B",
"K  c #7D646A",
"L  c #656377",
"P  c #676579",
"I  c #686579",
"U  c #84453E",
"Y  c #814640",
"T  c #864942",
"R  c #884A43",
"E  c #914F48",
"W  c #935049",
"Q  c #9B544C",
"!  c #815F5B",
"~  c #82615D",
"^  c #856864",
"/  c #89666E",
"(  c #81686E",
")  c #8B6F6D",
"_  c #856461",
"`  c #8B706E",
"'  c #8D7371",
"]  c #867D7C",
"[  c #897D7B",
"{  c #907976",
"}  c #917B79",
"|  c #586680",
" . c #5C6A83",
".. c #5E6D8A",
"X. c #636E85",
"o. c #606F8C",
"O. c #667186",
"+. c #64718B",
"@. c #6B768C",
"#. c #7A7986",
"$. c #677795",
"%. c #687491",
"&. c #6E7B95",
"*. c #6E7E9E",
"=. c #717D94",
"-. c #707E9D",
";. c #6E7FA0",
":. c #7D808D",
">. c #738097",
",. c #72809D",
"<. c #7D879B",
"1. c #7E899D",
"2. c #6F80A1",
"3. c #7181A1",
"4. c #7887A5",
"5. c #7888A7",
"6. c #8B8887",
"7. c #8F8988",
"8. c #8A8685",
"9. c #958381",
"0. c #978C8B",
"q. c #9B8D8C",
"w. c #9B908E",
"e. c #8C8B93",
"r. c #8A919D",
"t. c #929595",
"y. c #9E9493",
"u. c #97989C",
"i. c #A09594",
"p. c #A49D9C",
"a. c #818DA4",
"s. c #818EA8",
"d. c #8E96A0",
"f. c #8694AE",
"g. c #8895AF",
"h. c #9C9FA0",
"j. c #939CAF",
"k. c #8795B1",
"l. c #8996B0",
"z. c #8F9CB5",
"x. c #8D9AB3",
"c. c #939DB2",
"v. c #949FB3",
"b. c #949EB1",
"n. c #909DB5",
"m. c #909DB7",
"M. c #919DB6",
"N. c #939EB6",
"B. c #959FB4",
"V. c #929FB8",
"C. c #919FB9",
"Z. c #95A0B6",
"A. c #95A1B8",
"S. c #96A2BA",
"D. c #9CA7BC",
"F. c #9CA7BC",
"G. c #9FAABF",
"H. c #9EA8BE",
"J. c #9EA9BE",
"K. c #A3A2A2",
"L. c #A9A4A4",
"P. c #ADB2B2",
"I. c #9DA9C0",
"U. c #A1ABC0",
"Y. c #A1ABC1",
"T. c #A2ACC1",
"R. c #A3AEC3",
"E. c #A4AEC3",
/* pixels */
"                                                                                                    ",
"                                                                                                    ",
"                                                                                                    ",
"                                                                                                    ",
"                                                                                                    ",
"                                                                                                    ",
"                                          g.g.g.g.g.g.g.g.                                          ",
"                                        k.g.g.g.g.g.g.g.g.k.                                        ",
"                                        f.g.g.g.g.g.g.g.g.f.                                        ",
"                      g.g.g.g.g.g.k.&.v >.g.f.f.f.f.f.f.g.>.v &.k.g.g.g.g.g.g.                      ",
"                      g.g.g.g.g.g.k.&.c =.n.z.z.z.z.z.z.n.=.c =.k.g.g.g.g.g.g.                      ",
"                      g.g.g.g.g.g.k.&.v <.E.T.T.T.T.T.T.E.<.v &.k.g.g.g.g.g.g.                      ",
"                    F s.g.f.f.f.f.k.&.c &.z.x.x.x.x.x.x.z.&.c &.k.f.f.f.f.g.s.F                     ",
"z X.f.k.g.g.g.k.f. .N s.z.x.x.x.x.z.>.c ..3.*.*.*.*.*.*.3...c >.z.x.x.x.x.z.s.N  .f.k.g.g.g.k.f.X.z ",
"z X.f.k.g.g.g.k.f. .S c.E.U.U.U.T.E.a.c ..2.*.*.*.*.*.*.2...c a.T.U.U.U.U.E.c.S  .f.k.g.g.g.k.f.X.z ",
"z X.f.k.f.f.f.k.f. .N f.V.n.n.n.n.V.>.c ..3.*.*.*.*.*.*.3...c >.V.n.n.n.n.V.f.N  .f.k.f.f.f.k.f.X.z ",
"z X.k.x.l.l.l.x.g. .m $.3.3.3.3.3.3.o.c ..3.*.*.*.*.;.2.3...c o.3.3.3.3.3.3.$.m  .g.x.l.k.l.x.k.X.z ",
"z @.G.U.G.G.G.U.D.O.m $.2.*.*.*.*.3...x ..3.3.3.2.2.3.3.3...x ..;.*.*.*.*.;.$.c O.D.T.G.G.G.U.G.@.z ",
"z +.Z.A.A.A.A.A.n.X.m $.3.2.3.3.3.3.X.5 b L P I I I I P L b 5 X.3.2.3.3.3.3.$.m O.n.A.A.A.A.A.B.+.z ",
"z | 3.3.3.3.3.3.3.D c %.*.*.*.*.*.*.P & + + & & & & & & + + & P *.*.*.*.*.-.%.c D 3.4.3.3.3.3.3.| z ",
"z D *.*.*.*.*.*.*.n 3 8 a 8 6 7 a a 4 % X . @ $ $ $ $ @ . X % 4 a a 7 6 8 a 8 3 n *.*.*.*.*.*.*.D z ",
"z D *.3.;.;.*.3.*.d $ $ $ @ . o % % % % O O % % % % % % O O % % % % o . @ $ $ $ d *.3.3.;.;.3.*.D z ",
"z D *.*.*.*.*.2.*.d $ % % # X # - - - - % % - - - - - - % % - - - - # X # % % $ d *.2.*.*.*.*.*.D z ",
"z c D D D D D D D 4 * * * % # % : : : : = = : : : : : - = = : : : : % # = = = = 8 D D D D D D D c z ",
"z c S S S S S S S d r r t r ; = : : : : = = - : : : : - * = : : : : = * - : : : p N S S S S S S c z ",
"z +.b.Z.b.b.b.B.b.e.] ] 0.0.9 * : : : : = = - : : : : - * = : : : : = * - : : : K c.Z.b.b.b.Z.c.O.z ",
"z +.z.V.n.n.n.n.n.d.t.u.P.K.q * : - : : = = - : : : : - * = : : : : = % - : : : K x.V.n.n.n.V.n.+.z ",
"z D *.3.3.3.,.2.,.:.7.p.L.w.9 * : e e : = = - : : : : - * = : e e : = % - : : : B *.3.3.3.3.3.*.D z ",
"z D *.;.*.*.*.;.*.J u h j i ; * 1 } { 1 * * - : : : : - * * 1 { } 1 * % - : : : B *.2.*.*.*.*.*.D z ",
"z D *.3.*.*.*.2.*.B - - - - % * 1 ' ` < * * - : : : : - * * < ` ' 1 * % - : - - B *.2.*.*.*.3.*.D z ",
"z D *.3.*.*.*.2.*.B : : : - % = : , , : = * - : : : : - * = : > , : = * - 1 1 : B *.2.*.*.*.3.*.D z ",
"z | 3.3.3.3.3.3.-.V : : : - % = : : : : = = - : : : : - * = : : : : = % - _ } r f -.3.3.3.3.3.3.| z ",
"z N o.+.o.o.o.+.o.s : : : - % = : : : : = * - : : : : - * = : : : : = % - } p.h p o.+.o.o.o.+.o.N z ",
"z x c c c c c c c 4 : : : - * = : : : : = * - : : : : - * = : : : : = % - { p.h 4 c c c c c c c x z ",
"z G <.<.<.<.<.<.<.C : : : - % = : : : : = * - : : : : - * = : : : : = % - { p.i l <.<.<.<.<.<.<.G z ",
"z @.F.G.G.G.G.I.F.( : : : - * = : : : : = * - : : : : - * = : : : : = % - { p.i K F.I.D.D.D.I.F.@.z ",
"z | 4.5.4.4.4.5.4.C : : : - % = : : : : = = - : : : : - = = : : : : = % - { p.i B 4.5.4.4.4.5.4.| z ",
"z D *.*.*.*.*.;.*.B : : : - % = : : : : = = - : : : : - = = : : : : = % - } p.h f *.;.*.*.*.*.*.D z ",
"z D *.3.*.*.*.2.*.B : : : - * = : : : : = = - : : : : - = = : : : : = % - ` q.u f *.2.*.*.*.3.*.D z ",
"z D *.3.*.*.*.2.*.B : : : - % = : : : - = = - : : : : - = = : : : : = % - r u , B *.2.*.*.*.3.*.D z ",
"z D 3.3.3.3.3.3.-.V : : : - * = : : t ^ 9 % - : : : : - * * > ! ~ < * * - : - : V -.3.3.3.3.3.3.| z ",
"z D $.*.$.$.$.*.$.f : : : - * = : - ! y.k % - : : : : - * * 1 9.9.e * * - : : : f $.*.$.$.$.*.$.D z ",
"z x M M M M M M M 4 - - - - % = : : r j < % - : : : : - * * > h h > * * - : : : 0 M M M M M M M x z ",
"z N X.X.X.X.X.X.X.H g g k j ; * : : : - * * - : : : : - * = : : : : = * - : : : s X.X.X.X.X.X.X.N z ",
"z @.F.G.D.D.D.G.F.u.8.6.u.y.9 * : : : : = = - : : : : - * = : : : : = % - : : : ( F.G.D.G.D.G.F.@.z ",
"z X.f.k.f.f.k.k.f.r.t.K.P.K.q * : : : : = = - : : : : - * = : : : : = * - : : : J f.k.f.k.f.k.f.X.z ",
"z D *.*.*.*.*.*.*.#.[ q.i.9.w * : : : : = * - : : : : - * = : : : : = % - : : : B *.;.*.*.*.*.*.D z ",
"z D *.3.*.*.*.2.*.C 1 r r e = = : : : : = = : : : : : : * = : : : : = * - : : : B *.2.*.*.*.3.*.D z ",
"z D *.3.*.*.*.2.-.Z U U U 2 = : T T T T - = Y T T T R Y = - T T T T : = U R T T A -.2.*.*.*.3.*.D z ",
"z D *.3.*.*.*.2.-./ Q Q Q E - , Q Q Q Q , - W Q Q Q Q W - , Q Q Q Q , - E Q Q Q / -.2.*.*.*.3.*.D z "
};
