/* XPM */
static char *an34r_p2dmv[] = {
/* columns rows colors chars-per-pixel */
"50 50 6 1 ",
"  c #4B3840",
". c #4D3B42",
"X c #4E3C43",
"o c #4E3C44",
"O c #503F46",
"+ c #514047",
/* pixels */
"+++++++++++Oo.. ..XO+++++++OX.....oO++++++++++++++",
"+++++++++++Oo.....oO+++++++OX.....oO++++++++++++++",
"+++++++++++OoX....oO+++++++O... ..oO++++++++++++++",
"++++++++++++OoooooOO+++++++O..  ..oO++++++++++++++",
"+++++++++++++OOOOO+++++++++O... ..oO++++++++++++++",
"+++++++++++++++++++++++++++Oo....XoO++++++++++++++",
"+++++++++++++++++++++++++++OOoooooO+++++++++++++++",
"++++++++++++++++++++++++++++OOOOOO++++++++++++++++",
"++++++++++++++++++++++++++++++++++++++++++++++++++",
"++++++++++++++++++++++++++++++++++++++++++++++++++",
"++++++++++++++++++++++++++++++++++++++++++++++++++",
"OOO+++++++++++++++++++++++++OOOO++++++++++++++++++",
"oooO+++++++++++++++++++++++OoooO++++++++++++++++++",
"..XoO++++++++++++++++++++++Oo.XoO+++++++++++++++++",
"...oO++++++++++++++++++++++Oo..oO+++++++++++++++++",
" ..oO++++++++++++++++++++++OoooO++++++++++++++++++",
"...oO+++++++++++++++++++++++OOOO++++++++++++++++++",
"..XoO+++++++++++++++++++++++++++++++++++++++++++++",
"XooO++++++++++++++++++++++++++++++++++++++++++++++",
"OOOO++++++++++++++++++++++++++++++++++++++++++++++",
"++++++++++++++++++++++++++++++++++++++++++OOOO++++",
"++++++++++++++++++++++++++++++++++++++++OOooooOO++",
"+++++++++++++++++++++++++++++++++++++++Ooo....oO++",
"+++O++O++++++++++++++++++++++++++++++++Oo.....XO++",
"++OOooooOO+++++++++++++++++++++++++++++Oo.. ..XO++",
"++OoX...oOO++++++++++++++++++++++++++++Oo.. ..XO++",
"++Oo.....oO++++++++++++++++++++++++++++Oo.....oO++",
"++OX.. ..oO+OOOoOOOO+++++++++++++++++++Ooo....oO++",
"++o... ..oOOoo...ooO++++++++++++++++++++OoooooOO++",
"++OX.....oOOo.....oO++++++++++++++++++++OOOOOO++++",
"++Oo....ooOOo.. ..XO++++++++++++++++++++++++++++++",
"++OooooooO+Oo..  .XO++++++++++++++++++++++++++++++",
"++++OOOOO++Oo.....oO++++++++++++++++++++++++++++++",
"+++++++++++OoX....oO++++++++++++++++++++++++++++++",
"++++++++++++OoooooOO++++++++++++++++++++++++++++++",
"++++++++++++OOOOOOO+++++++++++++++++++++++++++++++",
"++++++OOOOOOO+++++++++++++++++++++++++++++++++++++",
"+++++OOoooooOO++++++++++++++++++++++++++++++++++++",
"+++++Oo.....oO++++++++++++++++++++++++++++++++++++",
"+++++OX.....oO+++++++++++++++++OOOO++++++OOOOOO+++",
"+++++OX.   .oO++++++++++++++++OoooO+++++OoooooOO++",
"+++++OX.....oO++++++++++++++++Oo.XoO+++OoX....oO++",
"+++++Oo.....oO++++++++++++++++Oo..oO+++Oo......o++",
"+++++OooXXXooO++++++++++++++++OoooOO+++Oo..  ..o++",
"++++++OOOOOOO++++++++++++++++++OOOO++++Oo.. ...O++",
"+++++++++++++++++++++++++++++++++++++++Oo.....oO++",
"+++++++++++++++++++++++++++++++++++++++OOoX..XoO++",
"++++++++++++++++++++++++++++++++++++++++OOOoooOO++",
"++++++++++++++++++++++++++++++++++++++++++++++++++",
"++++++++++++++++++++++++++++++++++++++++++++++++++"
};
