/* XPM */
static char *a7b59_bkiyw[] = {
/* columns rows colors chars-per-pixel */
"50 50 179 2 ",
"   c #514047",
".  c #010100",
"X  c #0B0605",
"o  c #060802",
"O  c #0C0A04",
"+  c #0D0608",
"@  c #110B06",
"#  c #150E09",
"$  c #1A0D0E",
"%  c #0F1004",
"&  c #141306",
"*  c #181707",
"=  c #1A1A07",
"-  c #16100A",
";  c #1A130A",
":  c #1C1B08",
">  c #21170D",
",  c #231C0B",
"<  c #281A0D",
"1  c #2E1D12",
"2  c #2F1918",
"3  c #251812",
"4  c #301D14",
"5  c #24230A",
"6  c #2A260C",
"7  c #2D2B0D",
"8  c #302E0E",
"9  c #33310F",
"0  c #2D2213",
"q  c #3E2915",
"w  c #342519",
"e  c #3E2D1D",
"r  c #373510",
"t  c #393711",
"y  c #3E3C12",
"u  c #422B16",
"i  c #462D18",
"p  c #45311A",
"a  c #4C331A",
"s  c #423B13",
"d  c #50341C",
"f  c #523A1C",
"g  c #472821",
"h  c #4B2B23",
"j  c #493623",
"k  c #4C3824",
"l  c #463421",
"z  c #533B23",
"x  c #593E23",
"c  c #553228",
"v  c #533C28",
"b  c #5C3F29",
"n  c #603C26",
"m  c #6A3E2F",
"M  c #434213",
"N  c #4A4616",
"B  c #4C4A16",
"V  c #4F4218",
"C  c #514E17",
"Z  c #5A411D",
"A  c #57491A",
"S  c #5B481D",
"D  c #565319",
"F  c #59551A",
"G  c #5E5B1B",
"H  c #634E1F",
"J  c #625D1D",
"K  c #65621D",
"L  c #69661E",
"P  c #6C681F",
"I  c #644322",
"U  c #684423",
"Y  c #6B4D24",
"T  c #774A2F",
"R  c #7B4F2C",
"E  c #724C27",
"W  c #6C5C21",
"Q  c #7A5129",
"!  c #7F5A2A",
"~  c #755626",
"^  c #6C4C30",
"/  c #6B4634",
"(  c #754A31",
")  c #744534",
"_  c #6C5034",
"`  c #7F5732",
"'  c #765738",
"]  c #7D5D3C",
"[  c #6F6B20",
"{  c #736722",
"}  c #726E21",
"|  c #767222",
" . c #7A7423",
".. c #7D7824",
"X. c #835A2F",
"o. c #885437",
"O. c #86573F",
"+. c #8B5538",
"@. c #9A5F3C",
"#. c #935C3C",
"$. c #8E612F",
"%. c #867E27",
"&. c #8E6030",
"*. c #84613F",
"=. c #906032",
"-. c #9A6836",
";. c #966738",
":. c #9E6C3A",
">. c #9C613D",
",. c #9D7333",
"<. c #A46A3B",
"1. c #AA6D3E",
"2. c #A26D37",
"3. c #AB733A",
"4. c #B0743C",
"5. c #B77A3E",
"6. c #946C45",
"7. c #9D7044",
"8. c #9E7248",
"9. c #A26D43",
"0. c #A27345",
"q. c #AD7242",
"w. c #A1734A",
"e. c #A7794E",
"r. c #B07242",
"t. c #B47A40",
"y. c #B07C48",
"u. c #BB7C42",
"i. c #AD7951",
"p. c #878227",
"a. c #8F8A29",
"s. c #96902B",
"d. c #9B952D",
"f. c #9F992E",
"g. c #A19C2F",
"h. c #A48A32",
"j. c #B08639",
"k. c #A49830",
"l. c #B69D38",
"z. c #A6A030",
"x. c #ADA533",
"c. c #BE824B",
"v. c #BF8657",
"b. c #BD8A56",
"n. c #C88644",
"m. c #CB8846",
"M. c #C1854A",
"N. c #C6894B",
"B. c #CB8B4B",
"V. c #C48245",
"C. c #D09946",
"Z. c #D4914C",
"A. c #D8914E",
"S. c #C98F55",
"D. c #C18E5A",
"F. c #CF9357",
"G. c #CF975F",
"H. c #D59556",
"J. c #DC9B57",
"K. c #D1955B",
"L. c #D69A5F",
"P. c #DB9D5E",
"I. c #E09C5A",
"U. c #D9A44A",
"Y. c #D4BF40",
"T. c #DFBB47",
"R. c #D8B244",
"E. c #DFA352",
"W. c #DDA15A",
"Q. c #E6B54E",
"!. c #E2A754",
"~. c #CF9761",
"^. c #CF9861",
"/. c #D59D64",
"(. c #DB9F63",
"). c #DCA267",
"_. c #DDA469",
"`. c #E3A364",
"'. c #E0A569",
/* pixels */
"                                                                                                    ",
"                                                                                                    ",
"                                                                                                    ",
"                                                                                                    ",
"                                                                                                    ",
"                                                                                                    ",
"                                                                                                    ",
"                                                                                                    ",
"                                                                                                    ",
"                                                                                                    ",
"                                                                                                    ",
"                                                                                                    ",
"                                                                                                    ",
"                                                                                                    ",
"                                                                                                    ",
"                                                                                                    ",
"                                                                                                    ",
"                                                                                                    ",
"                                                                                                    ",
"                                            . . . . . . . . .                                       ",
"                                            X X X @ @ # # # #                                       ",
"                                          + $ 3 4 q a f z v j w                                     ",
"                                      . . $ 2 g n R =.:.0.7.] k ; .                                 ",
"                                      O # 1 h m o.<.u.N.S.b.6.v ; .                                 ",
"                                    < q a n T +.>.1.q.q.0.6.' j ; .                                 ",
"                                . + u E =.2.1.1.<.@.+.( b j e 0                                     ",
"                                o > f &.5.n.m.V.r.#.) c w > -                                       ",
"                              7 y N H ! -.t.N.B.c.9.O./ v e w 3                                     ",
"                    . . . . , D ..%.{ S x ` y.F.F.v.i.w.6.*._ l - . . . .                           ",
"                  o o o . . , K f.x...s 0 b 8.G.)./.^.~.^.D.6.v ; . . o o                           ",
"                  7 r 7 * o * B p.d. .V p ^ e./.'._.).'.`.L.w.x ; O = 8 r 8                         ",
"              . 5 F | P y & o 5 N J W ~ X.7.b./._._._.`.`.H.9.z ; = M } | D 5 .                     ",
"            . o 9 } z.g.K 5 o . & 6 Z $.t.B.K./.).).(.P.J.B.-.d ; 5 L g.g.L 6 .                     ",
"            5 9 B | f.d.| N 6 % . @ u Q 3.M.F.L.(.(.P.W.E.C.,.f ; 5 G s.s.K 5 .                     ",
"        o 7 F } | | [ } | ..P y * . ; i Y ;.c.H.I.J.J.!.Q.R.h.A ; * 9 F G N 5                       ",
"      . o r | z.d.L t y } g.g.L 6 . . @ 1 I :.N.A.Z.Z.U.T.Y.k.F = o O : 5 :                         ",
"      . o r | g.a.C = : F s.d.L 6 . . . X q Q 2.4.3.3.j.l.x.a.D = . . . .                           ",
"        o 7 F L F 7 O O 9 G J M = . . . . > i I U U I Y W L G M *   .                               ",
"            5 5 : & o o & 5 5 * O . . . . X ; > < < < , 5 5 5 5                                     ",
"            . . . . . . . . . . . . . . . . . . . . . . . . .                                       ",
"                . . . . . . . . . . . . . . . . . . . . . .                                         ",
"                                                                                                    ",
"                                                                                                    ",
"                                                                                                    ",
"                                                                                                    ",
"                                                                                                    ",
"                                                                                                    ",
"                                                                                                    ",
"                                                                                                    ",
"                                                                                                    "
};
