/* XPM */
static char *ag0go_lvaa5[] = {
/* columns rows colors chars-per-pixel */
"50 50 187 2 ",
"   c #514047",
".  c #0C1412",
"X  c #111817",
"o  c #141B1B",
"O  c #141B1B",
"+  c #191F20",
"@  c #161C20",
"#  c #1A2122",
"$  c #1F2429",
"%  c #21272B",
"&  c #242A2E",
"*  c #262B32",
"=  c #292E34",
"-  c #2A2E39",
";  c #2C3136",
":  c #2D323B",
">  c #31353E",
",  c #34393F",
"<  c #442B2C",
"1  c #533326",
"2  c #472F32",
"3  c #44313E",
"4  c #493339",
"5  c #573A31",
"6  c #663F23",
"7  c #5A413D",
"8  c #674227",
"9  c #7A4D26",
"0  c #6B4933",
"q  c #7E5534",
"w  c #2F3241",
"e  c #323644",
"r  c #343942",
"t  c #383D45",
"y  c #343748",
"u  c #36394A",
"i  c #3A3D4B",
"p  c #3C3E53",
"a  c #463341",
"s  c #4B3947",
"d  c #3E424C",
"f  c #3A4046",
"g  c #3F4253",
"h  c #3F4158",
"j  c #40444F",
"k  c #43494E",
"l  c #424453",
"z  c #454954",
"x  c #43445B",
"c  c #494B5B",
"v  c #484D58",
"b  c #59495D",
"n  c #554657",
"m  c #4C505B",
"M  c #50565D",
"N  c #5A464F",
"B  c #634C4E",
"V  c #74574A",
"C  c #4A4B64",
"Z  c #4D4D69",
"A  c #474863",
"S  c #5A4C61",
"D  c #4E5065",
"F  c #525465",
"G  c #5E5267",
"H  c #53536B",
"J  c #5A5B6E",
"K  c #585A6A",
"L  c #555571",
"P  c #5C5C73",
"I  c #5D5D7A",
"U  c #665869",
"Y  c #615E7A",
"T  c #6A5E76",
"R  c #5F6074",
"E  c #616275",
"W  c #64647B",
"Q  c #696C7D",
"!  c #686976",
"~  c #71667E",
"^  c #756473",
"/  c #7C6866",
"(  c #905925",
")  c #946234",
"_  c #A4662A",
"`  c #AD723B",
"'  c #A56D38",
"]  c #86644E",
"[  c #956C4D",
"{  c #A77B57",
"}  c #B17A49",
"|  c #846E72",
" . c #8E7572",
".. c #9A7C72",
"X. c #AD7F60",
"o. c #B48858",
"O. c #958075",
"+. c #AE8569",
"@. c #AD8060",
"#. c #A98779",
"$. c #AF977D",
"%. c #BA9471",
"&. c #696682",
"*. c #6C6B85",
"=. c #6D6B89",
"-. c #666683",
";. c #726E8B",
":. c #746A83",
">. c #727783",
",. c #747985",
"<. c #74728D",
"1. c #79718C",
"2. c #757392",
"3. c #7B7694",
"4. c #7A7994",
"5. c #7F7D9A",
"6. c #827E9B",
"7. c #887E96",
"8. c #867C86",
"9. c #7F8390",
"0. c #82819D",
"q. c #868A98",
"w. c #968795",
"e. c #A48B8B",
"r. c #A48E92",
"t. c #A69499",
"y. c #8583A2",
"u. c #8A86A6",
"i. c #8B89A5",
"p. c #8D8BAB",
"a. c #8A87A8",
"s. c #928DAD",
"d. c #9292AD",
"f. c #9C94AD",
"g. c #9B9EAE",
"h. c #948FB0",
"j. c #9693B4",
"k. c #9A96B5",
"l. c #9D9CB4",
"z. c #9794B8",
"x. c #9A97B9",
"c. c #9D9ABC",
"v. c #A697A9",
"b. c #A09EBC",
"n. c #A59BB5",
"m. c #9DA0B2",
"M. c #A3A4BB",
"N. c #A9ACBE",
"B. c #B7AEAE",
"V. c #CDB38D",
"C. c #C3AF9B",
"Z. c #C5A984",
"A. c #D5CCB5",
"S. c #9D9BC1",
"D. c #A19EC2",
"F. c #A4A2C3",
"G. c #A8A7C5",
"H. c #AAAAC4",
"J. c #ACACC9",
"K. c #AAA6CB",
"L. c #B0AECE",
"P. c #ADB0C5",
"I. c #B2B3C7",
"U. c #B2B2CC",
"Y. c #B6B8CB",
"T. c #B8B8CA",
"R. c #B6B6D1",
"E. c #B7B8D2",
"W. c #BABBD5",
"Q. c #BFBFDA",
"!. c #BEC1D5",
"~. c #BFC0D8",
"^. c #C1C2DA",
"/. c #C2C4DB",
"(. c #C5C6DD",
"). c #C3C4DC",
"_. c #C6C8DE",
"`. c #C5CAD4",
"'. c #CDD2D6",
"]. c #CDCFCC",
"[. c #DBE1D9",
"{. c #E3E6D3",
"}. c #C9CBE1",
"|. c #CACCE2",
" X c #CDCFE5",
".X c #CED0E6",
"XX c #D0D2E9",
/* pixels */
"                . . . . . . . . . . . . . . . . . . . . . . . . . . . . . . . . . .                 ",
"                # # # # # # # # # # # # # # # # # # # + + + # + + + # # # # + + + +                 ",
"                , f d d d d d d d d d d d d d d f t r r r r r r r r r r r r r , > ;                 ",
"            # r M ! >.,.,.,.>.>.>.>.>.>.,.,.,.>.Q ! R P J J J J P P P P P P P J F l ; +             ",
"          X & k Q i.M.H.P.H.N.N.N.N.N.N.N.N.N.M.l.d.i.y.0.0.0.y.y.y.y.y.y.a.y.6.*.F t % X           ",
"        & ; d K 9.M.~.}.|.}._._._._._.(.(./.~.W.U.G.b.x.x.x.x.x.x.x.x.x.c.c.c.j.0.W c , * %         ",
"    & t v K Q q.g.Y._.XXXX.X X X X.X X}.(.^.W.R.J.G.F.b.c.c.c.c.c.c.c.c.D.D.D.x.p.4.W F v d : %     ",
". o = z ! q.g.N.Y.~._.|.|.|.}.}.|.|._./.W.U.J.F.D.c.c.c.c.c.c.c.c.c.c.c.c.c.c.x.j.p.y.4.Q F t & o . ",
". o = v ,.m.E./.(./.^.^.^.^.^./././.^.W.U.G.b.x.x.x.x.x.x.x.x.x.x.x.x.x.x.x.x.x.x.c.x.j.5.R d & o . ",
". o * v >.l.R.^.Q.W.R.R.R.R.R.R.E.E.R.U.G.F.c.x.x.x.x.x.x.x.x.x.x.x.x.x.x.x.x.x.c.D.D.x.0.E d & o . ",
". o & z Q d.G.L.L.J.G.G.G.G.G.G.G.G.G.F.F.c.x.x.x.x.x.x.x.x.x.x.x.x.x.x.x.x.x.x.c.D.D.x.0.E d & o . ",
". o & j E 0.x.D.D.c.c.c.c.c.c.c.c.c.c.c.c.x.x.x.x.x.x.x.x.x.x.x.x.x.x.x.x.x.x.x.c.c.c.j.0.E d & o . ",
". o & d E 6.j.c.c.x.x.x.x.x.x.x.x.x.x.x.x.x.x.x.x.x.x.x.x.x.x.x.x.x.x.x.x.x.x.x.c.c.c.j.0.E d & o . ",
". o & d E 6.j.c.c.x.x.x.x.x.x.x.x.x.x.x.x.x.x.x.x.x.x.x.x.x.x.x.x.x.x.x.x.x.x.x.c.c.c.j.0.E d & o . ",
". o & d E 0.j.c.c.c.x.x.x.x.x.x.x.x.x.x.x.x.x.x.x.x.x.x.x.x.x.x.x.x.x.x.x.x.x.x.c.c.c.j.0.E d & o . ",
". o & d E 0.j.c.c.c.x.x.x.x.x.x.x.x.x.x.x.x.x.x.x.x.x.x.x.x.x.x.x.x.x.x.x.x.x.x.c.c.c.j.0.E d & o . ",
". o & d E 0.j.c.D.c.c.c.c.c.c.c.c.c.c.c.c.x.x.x.x.x.x.x.x.x.x.x.x.x.x.x.x.x.x.x.c.c.c.j.0.E d & o . ",
". o & d E 0.j.c.S.c.c.c.c.c.c.c.c.c.c.c.x.x.x.x.x.x.x.x.x.x.x.x.x.x.x.x.x.x.x.x.c.c.c.j.0.E d & o . ",
". o & d E 0.j.c.x.j.s.s.s.s.s.s.s.s.s.j.j.j.x.x.x.x.x.x.x.x.x.x.x.x.x.x.x.x.x.x.c.c.c.j.0.E d & o . ",
". o & d E 0.j.j.u.6.1.1.1.1.1.1.;.;.1.3.6.p.j.x.c.x.x.x.x.x.x.x.x.x.x.x.x.x.x.x.c.c.c.j.0.E d & o . ",
". o & j W 0.s.u.3.T G S S S S S b b S U :.6.s.x.c.c.x.x.x.x.x.x.x.x.x.x.x.x.x.x.c.c.c.j.0.E d & o . ",
". o & l W 0.p.6.~ b s 3 3 3 a a 3 a s b T 3.s.x.c.c.x.x.x.x.x.x.x.x.x.x.x.x.x.x.c.c.c.j.0.E d & o . ",
". o & l W 0.p.7.^ N 4 < < < 2 4 4 s n G ~ 6.s.x.c.c.x.x.x.x.x.x.x.x.x.x.x.x.x.x.c.c.c.j.0.E d & o . ",
". o & l W 0.s.7.^ B 5 1 1 1 5 7 B U ~ 1.6.i.j.x.c.x.x.x.x.x.x.x.x.x.x.x.x.x.x.x.c.c.c.j.0.E d & o . ",
". o & l W 0.s.w.| V 0 8 6 8 0 V / 8.i.d.j.x.x.x.x.x.x.x.x.x.x.x.x.x.x.x.x.x.x.x.c.c.c.j.0.E d & o . ",
". o & g W 0.s.w. .] q 9 9 9 q ] O.t.N.P.J.F.c.x.x.x.x.x.x.x.x.x.x.x.x.x.x.x.x.x.c.c.c.j.0.E d & o . ",
". o & g W 0.s.w...[ ) ( ( ( ) { $.B.].`.!.J.b.x.x.x.x.x.x.x.x.x.x.x.x.x.x.x.c.c.c.D.D.x.0.E d & o . ",
". o & g E 0.d.r.#.{ ' _ _ _ ` o.Z.A.[.[.'.Y.M.x.z.x.x.x.x.x.x.x.x.x.x.x.x.x.c.c.c.D.D.x.0.E d & o . ",
". o & g R 0.f.t.#.{ } ` ` ` } %.V.A.{.[.'.Y.M.x.z.x.x.x.x.x.x.x.x.x.x.x.x.j.j.j.j.j.j.p.4.P d & o . ",
". o & d E 0.k.v.r.#.+.@.{ { +.$.C.A.].'.`.I.M.x.x.x.c.c.c.c.c.c.c.c.c.x.j.p.y.5.4.2.<.*.R m t & o . ",
". o & d W y.x.n.v.t.e.e.e.e.r.t.B.B.T.T.J.F.c.x.x.x.c.c.c.c.c.c.c.c.c.x.p.y.2.&.P H c l d r ;       ",
". o & d R 5.d.x.l.k.f.f.f.f.f.k.l.b.b.b.c.c.x.x.x.x.x.j.j.j.j.j.x.x.x.j.y.2.I Z x t : & $ #         ",
". o & t F Q 4.y.p.j.c.c.S.c.c.c.x.x.x.x.x.x.x.x.j.p.a.y.y.y.y.y.y.a.y.6.<.I Z p w = $ o .           ",
"    % : d v F W 4.p.c.D.D.S.S.c.c.x.x.x.c.c.c.j.p.5.2.=.*.*.*.*.*.=.*.&.I A i : * $ @               ",
"        % * r c W 0.j.c.c.c.x.x.x.x.x.x.c.c.x.s.6.=.I L H H H L L L L Z x u - $ # o                 ",
"          X % t F *.0.i.p.p.p.p.p.p.p.p.p.s.p.y.=.I A x h x A C Z Z Z A p w % + X X                 ",
"            + ; l F P W *.=.2.2.2.2.2.2.3.3.2.*.P x y w y p A D L L H Z l e % o X .                 ",
"                ; > t d c H L I I I I I I I I H x e * * : l H P Y W Y P C u * + X .                 ",
"                o o # * e g A Z Z Z Z C C C A g u : * = t c I &.=.=.*.E F i = # X .                 ",
"                . . X $ : g C H H H Z C x p u y t i d z F E ;.3.3.3.;.W H i = # X .                 ",
"                . . o & t c H I Y I P D l y - : i D E *.4.6.y.y.y.5.2.&.H i = # X .                 ",
"                . X # = i F Y &.=.&.W H l ; & = l E 5.p.j.x.j.s.a.5.;.E F i = # X .                 ",
"                . X # = d H W =.;.=.&.J l = $ * z Q i.c.F.F.c.j.a.2.W H z r * # X                   ",
"                . X # = d H W ;.;.;.&.J l = # * z *.p.D.K.K.F.j.0.Q F d > = %                       ",
"                . X # = i H W =.=.=.&.J l = % = l Q y.x.D.F.c.s.<.K i * # +                         ",
"                  X + = i c K I W W Y H l > * ; l P <.0.i.p.y.4.E z ; # X                           ",
"                    + & > i l v Z H H H x i e y i v F J E E P H z > % o .                           ",
"                        % * = > i x C C A x p i u t r r r r r > = % # o X                           ",
"                        o o # % : i x C C C A g y - $ + o o + + o o o o o                           ",
"                          . X # = y x A Z Z A x y * o . . . . . . X X o o                           "
};
