/* XPM */
static char *aqifx_7jham[] = {
/* columns rows colors chars-per-pixel */
"50 50 195 2 ",
"   c #514047",
".  c #0C1412",
"X  c #101716",
"o  c #151C1C",
"O  c #141B1B",
"+  c #191F21",
"@  c #171E20",
"#  c #1B2223",
"$  c #1F2528",
"%  c #21262C",
"&  c #23292D",
"*  c #262B34",
"=  c #292E34",
"-  c #262B37",
";  c #2B3036",
":  c #2E323B",
">  c #31363D",
",  c #33383E",
"<  c #442A2B",
"1  c #523225",
"2  c #55372C",
"3  c #462E30",
"4  c #493135",
"5  c #44313E",
"6  c #49353D",
"7  c #583C35",
"8  c #664025",
"9  c #69452D",
"0  c #7A4C24",
"q  c #7D522E",
"w  c #6B4832",
"e  c #7E5432",
"r  c #2F3343",
"t  c #353942",
"y  c #383D46",
"u  c #35384A",
"i  c #3A3E4A",
"p  c #323547",
"a  c #3C3E54",
"s  c #463341",
"d  c #4D3B4A",
"f  c #4A3745",
"g  c #3D414A",
"h  c #3B4145",
"j  c #3F4252",
"k  c #40444F",
"l  c #42484D",
"z  c #5F4B4E",
"x  c #424454",
"c  c #464956",
"v  c #44455D",
"b  c #4B4D5D",
"n  c #484B59",
"m  c #594A5D",
"M  c #584754",
"N  c #4D505E",
"B  c #4B5057",
"V  c #654D4D",
"C  c #725547",
"Z  c #4A4B65",
"A  c #4D4D68",
"S  c #464763",
"D  c #5A4C62",
"F  c #504F6B",
"G  c #4F5261",
"H  c #535566",
"J  c #52526C",
"K  c #5A5A6E",
"L  c #5A5667",
"P  c #5B5A75",
"I  c #5E5D79",
"U  c #545470",
"Y  c #645667",
"T  c #695E75",
"R  c #615F79",
"E  c #605E77",
"W  c #5D626C",
"Q  c #7B6763",
"!  c #616377",
"~  c #64637C",
"^  c #696B7D",
"/  c #686579",
"(  c #72667C",
")  c #756879",
"_  c #6E727D",
"`  c #905924",
"'  c #935E2D",
"]  c #926032",
"[  c #A46529",
"{  c #A56C35",
"}  c #AF723A",
"|  c #84624A",
" . c #946B4D",
".. c #9C7249",
"X. c #AF7847",
"o. c #B07743",
"O. c #AC7E5E",
"+. c #A37551",
"@. c #877376",
"#. c #957D74",
"$. c #B0814F",
"%. c #BA8B5D",
"&. c #9F8278",
"*. c #AD8366",
"=. c #AE9479",
"-. c #B59278",
";. c #A98778",
":. c #676583",
">. c #696682",
",. c #6C6A85",
"<. c #6E6C8A",
"1. c #746E8A",
"2. c #786F8A",
"3. c #717483",
"4. c #757985",
"5. c #73728D",
"6. c #79718C",
"7. c #747392",
"8. c #7A7592",
"9. c #7B7994",
"0. c #7E7C9A",
"q. c #877E89",
"w. c #817996",
"e. c #827E9C",
"r. c #81809B",
"t. c #8B839E",
"y. c #868A97",
"u. c #9A8D9E",
"i. c #92889E",
"p. c #A48C8C",
"a. c #A48780",
"s. c #A38E94",
"d. c #A6989B",
"f. c #8583A2",
"g. c #8886A4",
"h. c #8B89A7",
"j. c #8D8AAB",
"k. c #8685A8",
"l. c #928DAD",
"z. c #918FA5",
"x. c #9F91A3",
"c. c #9D94AD",
"v. c #9495AA",
"b. c #918FB2",
"n. c #9592B3",
"m. c #9A96B6",
"M. c #9C9AB5",
"N. c #9A97B9",
"B. c #9C9ABC",
"V. c #9795B9",
"C. c #8D91A0",
"Z. c #A09EBE",
"A. c #9FA2B3",
"S. c #B0A4A9",
"D. c #BFB7AC",
"F. c #A4A6B9",
"G. c #AAACBE",
"H. c #A1A5B6",
"J. c #B8B3BC",
"K. c #C3A780",
"L. c #CCB08A",
"P. c #C3AD99",
"I. c #D3CBB8",
"U. c #DDD4B9",
"Y. c #9C9BC1",
"T. c #A19EC1",
"R. c #A5A3C3",
"E. c #A8A6C5",
"W. c #AAA9C4",
"Q. c #A9A5CA",
"!. c #ACABCA",
"~. c #AEB1C3",
"^. c #AEB2CB",
"/. c #B3B3CD",
"(. c #BABACB",
"). c #B6B9CD",
"_. c #B6B6D1",
"`. c #B7BAD2",
"'. c #BBBBD5",
"]. c #BEBFD8",
"[. c #BEC0D5",
"{. c #BFC1D8",
"}. c #C8CCCE",
"|. c #C1C4D6",
" X c #C2C4DB",
".X c #C5C9DC",
"XX c #C4C8D6",
"oX c #CED2D9",
"OX c #D5DAD9",
"+X c #DBE1DA",
"@X c #E3E7D8",
"#X c #CACCE2",
"$X c #C7C8E0",
"%X c #CFD1E7",
"&X c #D1D3EA",
/* pixels */
"                      . . . . . . . . . .         . . . . . . . . . . . . . .                       ",
"                      + # # # # # # # # #         # # # # # # # # # # # # # +                       ",
"                    = > t t y g g g g g h ,       t h g g g g g g g g y t t > =                     ",
"                  % y N K ! ^ 3.4.4.4.3.! B = $ h L _ 4.4.4.3.4.4.4.3.^ ! K b y %                   ",
"              . o = c ^ r.l.M.F.G.~.~.F.y.W , ; B 4.M.W.~.G.G.G.G.G.F.M.l.r.^ c = o .               ",
"              % = i K 9.m.E./.'.|..X#X|.H.3.B l W C.).#X#X.X X X X{.'./.E.m.9.K i = %               ",
"            : g b K 3.g.B.E.!._.'. X#X.X/.z.4._ y.F. X%X&X%X#X$X|.'._.!.E.B.g.3.K b g :             ",
"        X $ y H ,.0.h.n.N.B.T.R.!._.|. X[.~.H.A.G.). X#X#X#X.X{._.!.R.T.B.N.n.h.0.,.H y $ X         ",
"        X $ g ! f.m.B.N.N.N.N.N.Z.W._.].|.[.].].].[.|. X X X{._.W.Z.N.N.N.N.N.B.m.f.! g $ X         ",
"        X $ g ~ h.B.T.B.N.N.V.N.B.R.!./.`.'.'.].'.`._._.`._./.!.R.B.N.V.N.N.B.T.B.h.~ g $ X         ",
"        X $ g ~ h.B.T.B.N.N.N.N.N.B.R.E.W.!.!.!.!.W.W.E.W.W.E.R.B.N.N.N.N.N.B.T.B.h.~ g $ X         ",
"        X $ g ! g.N.B.B.N.N.N.N.N.B.B.B.B.B.B.B.B.B.B.B.B.B.B.B.B.N.N.N.N.N.B.B.N.g.! g $ X         ",
"        X $ g ! g.N.B.B.N.N.N.N.N.N.N.N.N.N.N.N.N.N.N.N.N.N.N.N.N.N.N.N.N.N.B.B.N.g.! g $ X         ",
"        X $ g ! g.N.B.B.N.N.N.N.N.N.N.N.N.N.N.N.N.N.N.N.N.N.N.N.N.N.N.N.N.N.B.B.N.g.! g $ X         ",
"        X $ g ! g.N.B.B.N.N.N.N.N.N.N.N.N.N.N.N.N.N.N.N.N.N.N.N.N.N.N.N.N.N.B.B.N.g.! g $ X         ",
"        X $ g ! g.N.B.B.N.N.N.N.N.N.N.N.N.N.N.N.N.N.N.N.N.N.N.N.N.N.N.N.N.N.B.B.N.g.! g $ X         ",
"        X $ g ! g.N.T.B.B.B.B.B.B.B.B.B.B.B.N.N.N.N.N.N.B.B.B.B.B.B.B.B.B.B.B.T.N.g.! g $ X         ",
"        X $ g ! g.N.T.B.B.B.B.B.B.B.B.B.B.N.N.N.N.N.N.N.N.B.B.B.B.B.B.B.B.B.B.T.N.g.! g $ X         ",
"        X $ g ~ g.N.B.n.l.l.l.l.l.l.l.l.n.n.V.N.N.N.N.V.n.n.l.l.l.l.l.l.l.l.n.B.N.g.~ g $ X         ",
"        X $ g ~ g.n.l.e.6.2.2.6.6.6.6.6.w.g.n.N.B.B.N.n.g.w.6.6.6.6.6.2.2.6.e.l.n.g.~ g $ X         ",
"        X $ g ~ g.l.w./ D m m D D D D D T 8.j.V.B.B.V.j.8.T D D D D D m m D / w.l.g.~ g $ X         ",
"        X $ g ^ g.h.6.Y d s 5 s s 5 5 f m ( g.V.B.Y.V.g.,.m f 5 5 s s 5 s d Y 6.h.g.^ g $ X         ",
"        X $ g ~ g.j.w.T M d 6 4 3 < < 4 M ( t.V.T.T.V.t.( M 4 < < 3 4 6 d M T w.j.g.~ g $ X         ",
"        X $ g ~ g.n.h.9.( Y V 7 2 1 1 7 V ) t.V.Y.Y.V.t.) V 7 1 1 2 7 V Y ( 9.j.n.g.~ g $ X         ",
"        X $ g ! g.N.B.m.z.q.Q C 9 8 8 w C @.i.V.Y.Y.V.i.@.C w 8 8 9 C Q q.z.m.B.N.g.! g $ X         ",
"        X $ g ! g.B.!.^.G.d.#.| q 0 0 e | @.i.V.Y.Y.V.i.@.| e 0 0 q | #.d.G.^.!.B.g.! g $ X         ",
"        X $ i ! g.R.`.XX}.D.=...' ` ` ]  .#.u.V.Y.Y.V.u.#. .] ` ` ' ..=.D.}.XX`.R.g.! i $ X         ",
"        X $ i ! g.E.|.OX+XI.K.$.{ [ [ { +.&.u.V.Y.Y.V.u.&.+.{ [ [ { $.K.I.+XOX|.E.g.! i $ X         ",
"        X $ i ! g.W.XX+X@XU.L.%.o.} } X.O.a.x.V.Y.Y.V.x.a.O.X.} } o.%.L.U.@X+XXXW.g.! i $ X         ",
"        X $ i ! h.E.[.oXOXI.P.-.*.O.O.*.;.s.c.V.B.B.V.c.s.;.*.O.O.*.-.P.I.OXoX[.E.h.! i $ X         ",
"        X $ g ~ j.R./.(.(.J.S.d.p.p.p.p.s.x.m.N.N.N.N.m.x.s.p.p.p.p.d.S.J.(.(./.R.j.~ g $ X         ",
"        X $ g ! f.V.B.B.B.M.M.m.c.c.c.c.m.m.V.N.N.N.N.V.V.m.c.c.c.c.m.M.M.B.B.B.V.f.! g $ X         ",
"        X $ y L ,.9.0.e.f.h.b.V.B.B.B.B.B.B.N.N.N.N.N.N.B.B.B.B.B.B.V.b.h.f.e.0.9.,.L y $ X         ",
"            > k b H K I ,.7.k.V.Y.Y.Y.Y.Y.B.B.B.B.B.B.B.B.Y.Y.Y.Y.Y.n.k.7.,.I K H b k >             ",
"              & = : i v U :.0.j.N.B.B.N.N.N.N.N.N.N.N.N.N.N.N.B.B.N.j.0.:.U v i : = &               ",
"              @ # & : a A I 7.f.j.j.j.j.j.j.j.j.j.j.j.j.j.j.j.j.j.j.f.7.I A a : * # @               ",
"            O # & : u v J I :.<.7.7.7.7.7.7.7.7.7.7.7.7.7.7.7.7.8.7.<.:.I J v u : & # O             ",
"        . O $ - p a S K P I I P P P P P P P P P P P P P P P P P P P P I I P K S a p - $ O .         ",
"        $ & : i S J P R ~ R P J A Z Z A A A A A A A A A A A A Z Z A J P R ~ R P J v i : & $         ",
"      > i x b K I :.>.>.>.~ P J A A A A A F J J J J J J F A A A A A J P ~ >.>.>.:.I K b x i >       ",
". o ; c K >.5.9.0.0.8.1.>.~ R P P P P P P P I I I I I I P P P P P P P R ~ >.1.8.0.0.9.5.>.K c ; o . ",
". o : G 3.h.n.n.n.j.e.5.,.:.:.:.~ :.~ ~ ~ ~ ~ ~ ~ ~ ~ ~ ~ ~ ~ ~ ~ ~ :.~ :.,.5.e.j.n.n.n.h.3.G : o . ",
". o : H 9.N.R.R.B.n.f.8.,.>.>.>.>.>.,.>.~ E K J H H J P E ~ >.,.,.>.>.>.>.,.8.f.n.B.R.R.N.9.H : o . ",
". o : H 0.B.Q.Q.T.N.g.8.,.>.>.>.,.,.<.>.R J x i y y i x H R ,.<.,.,.,.>.>.,.8.g.N.T.Q.Q.B.0.H : o . ",
". o : H 9.m.T.T.N.b.f.7.,.>.>.>.>.,.,.~ K x > & # # % : x K :.,.,.>.>.>.>.,.8.f.n.N.T.T.m.9.H : o . ",
". o : N ,.r.g.g.f.0.8.,.~ ~ ~ ~ ~ ! R P b t % o X X O % t b P R ! ~ ~ ~ ~ ~ ,.8.0.g.g.g.r.,.N : o . ",
". o ; x H K P P P P P P P P P P K J b x t = # O . . O # * t x b J K P P P P P P P P P P K H k ; o . ",
"      : > t , , t y j v A F J A S x t = % # o O O O O o # & = t x S A J J A v j y t , , t > :       ",
"        + # o o # % : a S Z Z Z v u * # o O O O O O O O O o # * u v Z Z Z S a : % + o o + +         ",
"        . . . . . o * u v S Z S a r $ O . X O O O O O O X . O % r a S Z S v u * o . . . . .         "
};
