/* XPM */
static char *a2vso_md3vw[] = {
/* columns rows colors chars-per-pixel */
"50 50 187 2 ",
"   c #514047",
".  c #0C1412",
"X  c #111817",
"o  c #141B1B",
"O  c #141B1B",
"+  c #191F20",
"@  c #161C20",
"#  c #1A2122",
"$  c #1F2429",
"%  c #21272B",
"&  c #242A2E",
"*  c #262B32",
"=  c #292E34",
"-  c #2A2E39",
";  c #2C3136",
":  c #2D323B",
">  c #31353E",
",  c #34393F",
"<  c #442B2C",
"1  c #533326",
"2  c #472F32",
"3  c #44313E",
"4  c #493339",
"5  c #573A31",
"6  c #663F23",
"7  c #5A413D",
"8  c #674227",
"9  c #7A4D26",
"0  c #6B4933",
"q  c #7E5534",
"w  c #2F3241",
"e  c #323644",
"r  c #343942",
"t  c #383D45",
"y  c #343748",
"u  c #36394A",
"i  c #3A3D4B",
"p  c #3C3E53",
"a  c #463341",
"s  c #4B3947",
"d  c #3E424C",
"f  c #3A4046",
"g  c #3F4253",
"h  c #3F4158",
"j  c #40444F",
"k  c #43494E",
"l  c #424453",
"z  c #454954",
"x  c #43445B",
"c  c #494B5B",
"v  c #484D58",
"b  c #59495D",
"n  c #554657",
"m  c #4C505B",
"M  c #50565D",
"N  c #5A464F",
"B  c #634C4E",
"V  c #74574A",
"C  c #4A4B64",
"Z  c #4D4D69",
"A  c #474863",
"S  c #5A4C61",
"D  c #4E5065",
"F  c #525465",
"G  c #5E5267",
"H  c #53536B",
"J  c #5A5B6E",
"K  c #585A6A",
"L  c #555571",
"P  c #5C5C73",
"I  c #5D5D7A",
"U  c #665869",
"Y  c #615E7A",
"T  c #6A5E76",
"R  c #5F6074",
"E  c #616275",
"W  c #64647B",
"Q  c #696C7D",
"!  c #686976",
"~  c #71667E",
"^  c #756473",
"/  c #7C6866",
"(  c #905925",
")  c #946234",
"_  c #A4662A",
"`  c #AD723B",
"'  c #A56D38",
"]  c #86644E",
"[  c #956C4D",
"{  c #A77B57",
"}  c #B17A49",
"|  c #846E72",
" . c #8E7572",
".. c #9A7C72",
"X. c #AD7F60",
"o. c #B48858",
"O. c #958075",
"+. c #AE8569",
"@. c #AD8060",
"#. c #A98779",
"$. c #AF977D",
"%. c #BA9471",
"&. c #696682",
"*. c #6C6B85",
"=. c #6D6B89",
"-. c #666683",
";. c #726E8B",
":. c #746A83",
">. c #727783",
",. c #747985",
"<. c #74728D",
"1. c #79718C",
"2. c #757392",
"3. c #7B7694",
"4. c #7A7994",
"5. c #7F7D9A",
"6. c #827E9B",
"7. c #887E96",
"8. c #867C86",
"9. c #7F8390",
"0. c #82819D",
"q. c #868A98",
"w. c #968795",
"e. c #A48B8B",
"r. c #A48E92",
"t. c #A69499",
"y. c #8583A2",
"u. c #8A86A6",
"i. c #8B89A5",
"p. c #8D8BAB",
"a. c #8A87A8",
"s. c #928DAD",
"d. c #9292AD",
"f. c #9C94AD",
"g. c #9B9EAE",
"h. c #948FB0",
"j. c #9693B4",
"k. c #9A96B5",
"l. c #9D9CB4",
"z. c #9794B8",
"x. c #9A97B9",
"c. c #9D9ABC",
"v. c #A697A9",
"b. c #A09EBC",
"n. c #A59BB5",
"m. c #9DA0B2",
"M. c #A3A4BB",
"N. c #A9ACBE",
"B. c #B7AEAE",
"V. c #CDB38D",
"C. c #C3AF9B",
"Z. c #C5A984",
"A. c #D5CCB5",
"S. c #9D9BC1",
"D. c #A19EC2",
"F. c #A4A2C3",
"G. c #A8A7C5",
"H. c #AAAAC4",
"J. c #ACACC9",
"K. c #AAA6CB",
"L. c #B0AECE",
"P. c #ADB0C5",
"I. c #B2B3C7",
"U. c #B2B2CC",
"Y. c #B6B8CB",
"T. c #B8B8CA",
"R. c #B6B6D1",
"E. c #B7B8D2",
"W. c #BABBD5",
"Q. c #BFBFDA",
"!. c #BEC1D5",
"~. c #BFC0D8",
"^. c #C1C2DA",
"/. c #C2C4DB",
"(. c #C5C6DD",
"). c #C3C4DC",
"_. c #C6C8DE",
"`. c #C5CAD4",
"'. c #CDD2D6",
"]. c #CDCFCC",
"[. c #DBE1D9",
"{. c #E3E6D3",
"}. c #C9CBE1",
"|. c #CACCE2",
" X c #CDCFE5",
".X c #CED0E6",
"XX c #D0D2E9",
/* pixels */
"                . . . . . . . . . . . . . . . . . . . . . . . . . . . . . . . . . .                 ",
"                # # # # # + + + # # + # + + # # # # # # # # # # # # # # # # # # # #                 ",
"                : > r r r r r r r r r r r r r r t f d d d d d d d d d d d d d d f ,                 ",
"            + : l F J P P P P P P P P J J J P E ! Q >.,.,.,.>.>.>.>.>.>.,.,.,.>.! M , #             ",
"          X % t F *.6.y.u.y.y.y.0.0.y.y.0.0.y.i.d.l.M.N.N.N.N.N.N.N.N.N.H.P.H.M.q.! k & X           ",
"        % * , v W 0.j.c.c.c.x.x.x.x.x.x.x.x.x.b.G.U.W.~./.).)._._._._._.}.|.|.!.M.9.K d ; &         ",
"    % : d v F W 4.p.x.D.D.D.c.c.c.c.c.c.c.c.c.F.G.J.R.W.^.).}. X.X.X X X.XXXXX}.Y.g.q.Q K v t &     ",
". o & t F Q 4.y.p.j.x.c.c.c.c.c.c.c.c.c.c.c.c.c.c.D.F.J.U.W./.}.|.|.}.}.|.|.|._.!.Y.N.g.q.! z * o . ",
". o & d R 5.j.x.c.x.x.x.x.x.x.x.x.x.x.x.x.x.x.x.x.x.x.b.G.U.W.^././.^.^.^.^.^.^./.)./.E.m.,.v * o . ",
". o & d E y.x.D.D.c.x.x.x.x.x.x.x.x.x.x.x.x.x.x.x.z.x.c.F.H.U.R.R.R.R.R.R.R.R.R.W.Q.^.E.l.>.v * o . ",
". o & d E 0.x.D.D.c.x.x.x.x.x.x.x.x.x.x.x.x.x.x.x.x.x.x.c.F.F.G.H.H.G.G.G.G.G.H.J.L.L.H.d.Q z & o . ",
". o & d E 0.j.c.c.c.x.x.x.x.x.x.x.x.x.x.x.x.x.x.x.x.x.x.x.c.c.c.c.c.c.c.c.c.c.c.c.F.D.x.0.E j & o . ",
". o & d E 0.j.c.c.c.x.x.x.x.x.x.x.x.x.x.x.x.x.x.x.x.x.x.x.x.x.x.x.x.x.x.x.x.x.x.x.c.c.j.6.E d & o . ",
". o & d E 0.j.c.c.c.x.x.x.x.x.x.x.x.x.x.x.x.x.x.x.x.x.x.x.x.x.x.x.x.x.x.x.x.x.x.x.c.c.j.6.R d & o . ",
". o & d E 0.j.c.c.c.x.x.x.x.x.x.x.x.x.x.x.x.x.x.x.x.x.x.x.x.x.x.x.x.x.x.x.x.x.x.x.c.c.j.0.E d & o . ",
". o & d E 0.j.c.c.c.x.x.x.x.x.x.x.x.x.x.x.x.x.x.x.x.x.x.x.x.x.x.x.x.x.x.x.x.x.x.c.c.c.j.0.E d & o . ",
". o & d E 0.j.c.c.c.x.x.x.x.x.x.x.x.x.x.x.x.x.x.x.x.x.x.x.c.c.c.c.c.c.c.c.c.c.c.c.D.c.j.0.E d & o . ",
". o & d E 0.j.c.c.c.x.x.x.x.x.x.x.x.x.x.x.x.x.x.x.x.x.x.x.x.c.c.c.c.c.c.c.c.c.c.c.D.c.j.0.E d & o . ",
". o & d E 0.j.c.c.c.x.x.x.x.x.x.x.x.x.x.x.x.x.x.x.x.x.x.z.j.h.s.s.s.s.s.s.s.s.s.j.x.c.j.0.E d & o . ",
". o & d E 0.j.c.c.c.x.x.x.x.x.x.x.x.x.x.x.x.x.x.x.x.x.j.p.6.3.1.;.;.1.1.1.1.1.1.6.u.j.j.0.E j & o . ",
". o & d E 0.j.c.c.c.x.x.x.x.x.x.x.x.x.x.x.x.x.x.c.c.x.s.6.:.U S b b S S S S S G T 1.u.s.0.W j & o . ",
". o & d E 0.j.c.c.c.x.x.x.x.x.x.x.x.x.x.x.x.x.x.c.c.x.s.3.T b s a 3 a a 3 3 3 s b ~ 6.p.0.W l & o . ",
". o & d E 0.j.c.c.c.x.x.x.x.x.x.x.x.x.x.x.x.x.x.c.c.x.s.6.~ U n s 4 4 2 < < < 4 N ^ 7.p.0.W l & o . ",
". o & d E 0.j.c.c.c.x.x.x.x.x.x.x.x.x.x.x.x.x.x.x.c.x.j.i.6.1.~ U B 7 5 1 1 1 5 B ^ 7.p.0.W l & o . ",
". o & d E 0.j.c.c.x.x.x.x.x.x.x.x.x.x.x.x.x.x.x.x.x.x.x.x.j.d.i.8./ V 0 8 8 8 0 V | w.s.0.W g & o . ",
". o & d E 0.j.c.c.c.x.x.x.x.x.x.x.x.x.x.x.x.x.x.x.x.x.c.F.J.P.N.t.O.] q 9 9 9 q ]  .w.s.0.W g & o . ",
". o & d E 0.x.D.D.c.c.c.c.x.x.x.x.x.x.x.x.x.x.x.x.x.x.b.J.!.`.].B.$.{ ) ( ( ( ) [ ..w.s.0.W g & o . ",
". o & d E 0.x.D.D.c.c.x.x.x.x.x.x.x.x.x.x.x.x.x.x.j.x.M.Y.'.[.[.A.Z.o.` _ _ _ ' { #.r.d.0.W g & o . ",
". o & d P 4.p.j.j.j.j.j.j.z.x.x.x.x.x.x.x.x.x.x.x.j.x.M.Y.'.[.{.A.V.%.} ` ` ` } { #.t.f.0.W g & o . ",
". o & t m R *.<.2.4.6.y.p.j.x.c.c.c.c.c.c.c.c.x.x.x.x.M.I.`.'.].A.C.$.+.X.{ @.+.#.r.v.k.0.W g & o . ",
"      ; r d l c F P -.2.y.p.x.c.c.c.c.c.c.c.c.c.x.x.x.c.F.J.I.T.B.B.t.r.e.e.e.r.t.v.n.z.y.W d & o . ",
"        # $ & : y x Z I 2.y.j.x.x.x.j.j.j.j.j.z.z.x.x.x.c.c.b.b.b.l.k.f.f.f.f.f.k.k.z.d.5.R d & o . ",
"          . o # * w p Z I <.6.y.u.y.y.y.y.y.y.a.p.j.x.x.x.x.x.x.x.x.c.c.c.S.c.c.j.p.y.4.*.F t & o . ",
"              @ $ * : i C P -.=.=.=.=.=.=.=.=.2.5.a.j.c.c.c.x.x.c.c.c.S.S.D.D.c.p.4.W H v d : %     ",
"                o # $ - u x Z L L L L H H H L I =.6.p.x.c.c.x.x.x.x.x.x.c.c.c.j.0.W v r * %         ",
"                X X + % : p A Z Z Z A C x h x C P =.y.p.s.p.p.p.p.p.p.p.p.p.u.0.*.F t $ X           ",
"                . X o % e x Z H L H F C p e w y x P *.2.3.3.2.2.2.2.2.<.=.*.W P F l : +             ",
"                . X + * u C P Y W W P F x : * * e x H I I I I P I I P L F c d y > ;                 ",
"                . X # = i F W *.=.=.&.P c t = * : u h x C A A Z Z Z Z C h e * # o o                 ",
"                . X # = d H W ;.3.3.3.;.W F z d i y y u p x A Z H H H A h : $ o . .                 ",
"                . X # = d H &.2.5.y.y.y.6.4.*.E D i : - e x F P I Y I H c y & o . .                 ",
"                . X # = i F W ;.5.u.h.j.z.j.p.5.E l = & : x H W &.=.&.Y F i * # X .                 ",
"                  X # * r z H W 2.u.j.c.F.F.c.i.Q l * $ = l J &.=.;.=.W H d = # X .                 ",
"                      % = > d F Q 0.j.F.K.K.D.p.*.l * # = l P &.;.;.;.W H d = # X .                 ",
"                        + # * i K <.s.c.F.D.x.y.Q l * % = l J -.=.=.=.W F i = # X .                 ",
"                          X # ; z E 4.y.p.i.0.<.P l : * > l H Y W W P K c i * # X                   ",
"                          . o % > z K P E E J H v i e e i x F H H Z v l i > & #                     ",
"                          X o # % = > r r r r r y u i p x A A A x i > = * %                         ",
"                          o o o o o + + o o # $ - y h x A A A x i : % + o o                         ",
"                          o o X X . . . . . . @ * y x A Z Z A x y * # X .                           "
};
