/* XPM */
static char *a41yo_imd6b[] = {
/* columns rows colors chars-per-pixel */
"50 50 147 2 ",
"   c #514047",
".  c #0C1412",
"X  c #101716",
"o  c #101816",
"O  c #151C1C",
"+  c #181F1F",
"@  c #171E20",
"#  c #191F21",
"$  c #1B2223",
"%  c #1F2528",
"&  c #21262C",
"*  c #23292D",
"=  c #222730",
"-  c #262B34",
";  c #292E34",
":  c #272C38",
">  c #2A2E3C",
",  c #2B3036",
"<  c #2E323B",
"1  c #31363D",
"2  c #33383E",
"3  c #2F3343",
"4  c #323547",
"5  c #353942",
"6  c #383D46",
"7  c #35384A",
"8  c #3A3E4A",
"9  c #3C3E54",
"0  c #3B4145",
"q  c #3D414A",
"w  c #3F4252",
"e  c #40444F",
"r  c #42484D",
"t  c #424454",
"y  c #464956",
"u  c #484E54",
"i  c #44455D",
"p  c #47485E",
"a  c #4B4D5D",
"s  c #4B5057",
"d  c #4D505E",
"f  c #454661",
"g  c #474864",
"h  c #4A4B65",
"j  c #4D4D68",
"k  c #504F6B",
"l  c #4F5261",
"z  c #535566",
"x  c #595E67",
"c  c #52526C",
"v  c #565869",
"b  c #5A5A6E",
"n  c #545570",
"m  c #5A5A74",
"M  c #5E5D79",
"N  c #605E77",
"B  c #615F79",
"V  c #5D626C",
"C  c #626476",
"Z  c #636872",
"A  c #64637B",
"S  c #696B7D",
"D  c #6E727D",
"F  c #676583",
"G  c #696682",
"H  c #6C6A85",
"J  c #6D6C89",
"K  c #706D8B",
"L  c #717483",
"P  c #757985",
"I  c #73728D",
"U  c #747391",
"Y  c #787694",
"T  c #7A7A94",
"R  c #7D7C99",
"E  c #817F9D",
"W  c #838794",
"Q  c #81809B",
"!  c #898C9B",
"~  c #8583A1",
"^  c #8886A4",
"/  c #8A89A7",
"(  c #8D8BAB",
")  c #8D91A0",
"_  c #9195A3",
"`  c #9191AB",
"'  c #9B9FAF",
"]  c #928FB1",
"[  c #9592B4",
"{  c #9895B7",
"}  c #9C9DB4",
"|  c #9A97B9",
" . c #9D9ABC",
".. c #A09EBE",
"X. c #9FA2B3",
"o. c #A1A5B6",
"O. c #A4A6B9",
"+. c #A9ACBE",
"@. c #A19EC1",
"#. c #A5A3C4",
"$. c #A8A6C6",
"%. c #AAAAC5",
"&. c #A9A5CA",
"*. c #ADABCA",
"=. c #AEB1C3",
"-. c #B3B3CD",
";. c #B6B9CD",
":. c #B6B6D1",
">. c #B7B8D1",
",. c #BCBCD6",
"<. c #BCBCD7",
"1. c #BDBFD6",
"2. c #BDBED5",
"3. c #BABAD5",
"4. c #BEBFD8",
"5. c #BEC0D4",
"6. c #BEC0D7",
"7. c #BEC0D8",
"8. c #BFC1D8",
"9. c #C0C2D7",
"0. c #C0C1D9",
"q. c #C1C2D9",
"w. c #C1C3D9",
"e. c #C0C1DA",
"r. c #C1C2DB",
"t. c #C1C4D8",
"y. c #C2C4DA",
"u. c #C2C4DB",
"i. c #C3C4DB",
"p. c #C3C5DB",
"a. c #C4C6DB",
"s. c #C4C6DC",
"d. c #C4C6DD",
"f. c #C5C7DD",
"g. c #C4C5DF",
"h. c #C7C9DF",
"j. c #C6C8DF",
"k. c #C7C8E0",
"l. c #C7C9E0",
"z. c #C8CAE0",
"x. c #C9CBE2",
"c. c #CACCE2",
"v. c #CACCE4",
"b. c #CBCDE4",
"n. c #CBCEE4",
"m. c #CFD1E7",
"M. c #D1D3EA",
/* pixels */
"                      . . . . . . . . . . . . . .         . . . . . . . . . .                       ",
"                      # $ $ $ $ $ $ $ $ $ $ $ $ $         $ $ $ $ $ $ $ $ $ #                       ",
"                    ; 1 5 5 6 q q q q q q q q 0 5       2 0 q q q q q 6 5 5 1 ;                     ",
"                  & 6 a b C S L P P P L P P P D x 0 % ; u Z L P P P L S C b a 6 &                   ",
"              . O ; y S Q ` } O.+.+.+.+.%.=.%.' P u , 2 V ! O.=.=.+.O.} ` Q S y ; O .               ",
"              & ; 8 v T { $.-.3.8.u.f.f.z.b.z.;.) V r s L o.9.z.l.r.3.-.$.{ T v 8 ; &               ",
"            < q a b L ^  .$.*.:.3.r.l.b.m.M.m.u.O.W D P _ -.j.b.f.3.:.*.$. .^ L b a q <             ",
"        X % 6 v H R / [ |  .@.#.*.-.8.j.c.n.c.a.;.+.X.o.=.5.f.r.:.*.#.@. .| [ / R H v 6 % X         ",
"        X % q C ~ {  .| | | | | ..%.:.5.u.u.r.r.8.1.1.1.8.r.5.:.%...| | | | |  .{ ~ C q % X         ",
"        X % q A /  .@. .| | { |  .#.*.-.:.:.:.:.3.3.1.1.3.3.-.*.#. .| { | |  .@. ./ A q % X         ",
"        X % q A /  .@. .| | | | |  .#.$.%.%.$.%.%.*.*.*.*.%.$.#. .| | | | |  .@. ./ A q % X         ",
"        X % q C ^ |  . .| | | | |  . . . . . . . . . . . . . . .| | | | | |  . .| ^ C q % X         ",
"        X % q C ^ |  . .| | | | | | | | | | | | | | | | | | | | | | | | | |  . .| ^ C q % X         ",
"        X % q C ^ |  . .| | | | | | | | | | | | | | | | | | | | | | | | | |  . .| ^ C q % X         ",
"        X % q C ^ |  . .| | | | | | | | | | | | | | | | | | | | | | | | | |  . .| ^ C q % X         ",
"        X % q C ^ |  . .| | | | | | | | | | | | | | | | | | | | | | | | | |  . .| ^ C q % X         ",
"        X % q C ^ |  . .| | | | | | | | | | | | | | | | | | | | | | | | | |  . .| ^ C q % X         ",
"        X % q C ^ |  . .| | | | | | | | | | | | | | | | | | | | | | | | | |  . .| ^ C q % X         ",
"        X % q C ^ |  . .| | | | | | | | | | | | | | | | | | | | | | | | | |  . .| ^ C q % X         ",
"        X % q C ^ |  . .| | | | | | | | | | | | | | | | | | | | | | | | | |  . .| ^ A q % X         ",
"        X % q C ^ |  . .| | | | | | | | | | | | | | | | | | | | | | | | | |  . .| ^ C q % X         ",
"        X % q C ^ |  . .| | | | | | | | | | | | | | | | | | | | | | | | | |  . .| ^ C q % X         ",
"        X % q A ^ |  . .| | | | | | | | | | | | | | | | | | | | | | | | | |  . .| ^ C q % X         ",
"        X % q C ^ |  . .| | | | | | | | | | | | | | | | | | | | | | | | | |  . .| ^ C q % X         ",
"        X % q C ^ |  . .| | | | | | | | | | | | | | | | | | | | | | | | | |  . .| ^ C q % X         ",
"        X % q C ^ |  . .| | | | | | | | | | | | | | | | | | | | | | | | | |  . .| ^ C q % X         ",
"        X % q C ^ |  . .| | | | | | | | | | | | | | | | | | | | | | | | | |  . .| ^ C q % X         ",
"        X % q C ^ |  . .| | | | | | | | | | | | | | | | | | | | | | | | | |  . .| ^ C q % X         ",
"        X % q C ^ |  . .| | | | | | | | | | | | | | | | | | | | | | | | | |  . .| ^ C q % X         ",
"        X % q A /  .@. . .| | | | | | | | | | | | | | | | | | | | | | |  . . .@. ./ A q % X         ",
"        X % q A /  .#.@. . .| | | | | | | | | | | | | | | | | | | | | |  . .@.#. ./ A q % X         ",
"        X % q C ~ { | | { { | | | | | | | | | | | | | | | | | | | | | | { { | | { ~ C q % X         ",
"        X % 6 v H T E ~ ^ / ] { |  . .| | |  . .| | | | | | |  . .| { [ ( ^ ~ E T H v 6 % X         ",
"            1 e a z m A J Y ^ [  . . . . . . . . . . . . . . . . . .[ ^ Y J A m z a e 1             ",
"              * ; < 8 i n F R ( |  . .| | | | | | | | | | | | |  .| ( R F n i 8 < ; *               ",
"              @ $ * < 9 j M I ~ ( ( ( ( ( ( ( ( ( ( ( ( ( ( ( ( ( ( ~ U M j 9 < = $ @               ",
"            O $ = > 7 i c M F J U U U U U U U U U U U U U U U U Y U J F M c i 7 > = $ O             ",
"        . O % : 4 9 g v m M M m m m m m m m m m m m m m m m m m m m m M M m v g 9 4 : % O .         ",
"        % * < 8 f c m A A B m c j h h j j j j j j j j j j j j h h j c m B A B m c i 8 < * %         ",
"      1 8 t a v M F G G G A m c j j j j j k c c c c c c k j j j j j c m A G G G F M v a t 8 1       ",
". O , y b G I T R R Y K G A B m m m m m m m M M M M M M m m m m m m m B A G K Y R R T I G b y , O . ",
". O < l L / [ [ [ ( E I H F A F F A F F A A A A A A A A A A A A A A F A F H I E ( [ [ [ / L l < O . ",
". O < z T | #.#. .[ ^ Y H G G G G G H G A N b v z z v m N A G H H G G G G H Y ^ [  .#.#.| T z < O . ",
". O < v R  .&.&.@.{ ^ Y H G G G H H J G B z t 8 6 6 8 t z B H J H H G G G H Y ^ | @.&.&. .R v < O . ",
". O < z T { @.@.| ] ~ U H G G G G H H A b t < * % % & < t b F H H G G G G H Y ~ [ | @.@.{ T z < O . ",
". O < d H Q ^ ^ ~ R Y H A A A A A A B b a 5 & O X X O & 5 a b B A A A A A A H Y R ~ ^ ^ Q H d < O . ",
". O , t z b m m m m m m m m m m v c a t 5 ; $ O . . O $ ; 5 t a c v m m m m m m m m m m b z e , O . ",
"      < 1 5 2 2 5 6 w p j k c j g t 5 ; & $ O O O O O O $ & ; 5 t g j c c j p w 6 5 2 2 5 1 <       ",
"        # $ + O $ & < 9 i h h h i 7 - $ O O O O O O O O O O $ - 7 i h h h f 9 < & # O + # #         ",
"        . . . . . O - 7 i g h f 9 3 % O . X O O O O O O X . O % 3 9 f h g i 7 - O . . . . .         "
};
