/* XPM */
static char *akjj8_g56bu[] = {
/* columns rows colors chars-per-pixel */
"50 50 47 1 ",
"  c #323B4C",
". c #374153",
"X c #394255",
"o c #3B4559",
"O c #3F495E",
"+ c #3F4A60",
"@ c #404A5F",
"# c #424E64",
"$ c #455067",
"% c #465269",
"& c #49566D",
"* c #4A5771",
"= c #4D5A73",
"- c #4F5D78",
"; c #515E76",
": c #515F7A",
"> c #54627D",
", c #566582",
"< c #576684",
"1 c #586580",
"2 c #596781",
"3 c #596784",
"4 c #5B6984",
"5 c #5C6A86",
"6 c #5B6A8A",
"7 c #5C6B8A",
"8 c #5E6D89",
"9 c #5E6E8D",
"0 c #606E8B",
"q c #606F8C",
"w c #61708D",
"e c #637292",
"r c #657391",
"t c #667593",
"y c #647494",
"u c #657594",
"i c #687797",
"p c #697997",
"a c #677798",
"s c #6B7A99",
"d c #6C7C9B",
"f c #6C7C9C",
"g c #6D7D9D",
"h c #6F7FA0",
"j c #6F80A0",
"k c #7181A2",
"l c #7384A5",
/* pixels */
"$#OX                    XO#OX                     ",
"$##oX..XXXXXXXXXXXXXXX.Xo###oX..XXXXXXXXXXXXXXXXXX",
"###$$$$$$$$$$$$$$$$$$$$$$###$$$$$$$$$$$$$$$$$$$$$$",
"#$&;>222222222222222222>;&%&;>22222222222222222222",
"#%=4tssppppppppppppppssu5=%=4tsssppppppppppppppsss",
"#%;0gkkgggggggggggggghkgw;&-8gkkgggggggggggggggkkk",
"#%;wgkgauuuuuuuuuuuuugkgw;&;qgkgauuuuuuuuuuuuughkl",
"#$-8ssu97677777777779tss8;&-8ssu97677777777779esgg",
"O#&>883>;;;>>>>>>;;;>288>&#&>883>;;;:>,,>>;;;>27qw",
"XoO$&&&$###%&**&%###$%&&%OoO$&&&$###%&**&%####%&==",
"..XooooooooO#$$#OooooooooXXXooooooooO#$%#OoooooooO",
"OOOOOOOOOOO@####@OOOOOOOOO@OOOOOOOOO@####@OOOOOOOO",
";;;;;;;;;;;=&$$&=;;;;;;;;;;;;;;;;;;;=&$$&=;;;;;;;;",
"rrrrrrrrttr8;&&;5rttrrrrrrrrrrrrrttr8>&&;5rttrrrrr",
"dgggdddgghgu2&&>tghggdggdddddgggdgggu2&&>tghggddgd",
"iiiiuuuishkp2*&2ikkssuuiiiiiiiiuisgkp2*&>ukhssuuii",
"99999999esgi2*&>ugsuq999999999999esgi2&&>ugst99999",
"666666669ust2&&>wuu966666666666469ust2&&>esu966666",
"666666669euw>&%=258666666666666669euw>&&>que966666",
"666666668996;&%%=;>366666666666667994;&&;499766666",
"33<<2222232>=%###%*;2<<2<<3<<22222<2>=%%*>23<2,222",
";;-=*******&#OoooO#%****=-;-=*******&#OO#%********",
"*&%#OOOOOOOOoX....XoOOOO#%&%#OOOOOOOOoXXooOOOOOOOO",
"%##OoooooooooXXXXXXoooooO###OoooooooooXXoooooooooo",
"###$%%%%%%%%%%%&%%%%%%%%$###$%%%%%%%%%%%%%%%%%%%%%",
"#$&;25555555555555555552;&%&;255555555555555554444",
"#%=4iddssssssssssssssddp5-%=4iddssssssssssssssssss",
"#%;8gkggsssssssssssssgkgw;&-8gkggsssssssssssssghkk",
"#%;0ggsueeurreeeeeeeusggw;&-8ggsueeeeeeeeeeeeusgkk",
"#%-8ssu96666677777779tss0;&-8ssu96677777777769esgh",
"#%-5uue732,,236666666euu8-&=5uue76466666666667wuss",
"#%=2wee7<>--><66666669ee3=%=2weq766666666666679eru",
"#$&>4774,=&&-24664446676>*%&>476644444444466666677",
"O#$*-:>;=%##&;,>>;;;;::;*%#$*-:>;;;;>>,,>>;;;;;;;;",
"Xoo+##$##OoO#*=*%####$##+ooo+#######%&==&%########",
"..XXooooXX.oO$%#OoooooooXX.XXoooooooO#$$#Ooooooooo",
"OOOOOOOOOOO@####@OOOOOOOOOOOOOOOOOOO@####@OOOOOOOO",
";;;;;;;;;;;=&$$&=;;;;;;;;;;;;;;;;;;;=&$$&=;;;;;;;;",
"rrrrrrrrttr8>&%;5rttrrrrrrrrrrrrrttr8;&&;5rttrrrrr",
"dgggdddggggu2&&>tghgddggggggddddgghgu2&&>tghgggggg",
"uaauuuaashkp2*&>ukjssuuauaasuuauushks2*&>ukkssuuaa",
"99999999esgi2&&>ugsuq999999999999esgi2*&>tgstq9999",
"666666669ust2&&>esu966666666666669ust2&&>rsu966666",
"666666669euq>&&>9ue966666666666669euw>&&>8ue966666",
"666666667994;&&;499766666666666667994;&%-499766666",
"33333333343>=%%=>3433333333333333343,=%%=>34333333",
";;;;;;;;;;;=&%%&=;;;;;;;;;;;;;;;;;;;=&%%&=;;;;;;;;",
"&&&&***&&&&&%$$%&&&*&*&&&&&&&&&&&&&&&%$$%&&&&&&&&&",
"$$$$%$$$$$$$###$$$$$$$$$$$$$$$$$$$%%$$###$$$$$$$$$",
"##################################################"
};
